<svg width="216" height="40" viewBox="0 0 216 40" fill="none" xmlns="http://www.w3.org/2000/svg">
<g clip-path="url(#clip0_45_192)">
<path d="M47.6648 7.82495C53.6526 7.82495 59.5092 11.3562 59.5092 19.2312C59.5092 19.8562 59.478 20.825 59.4093 21.5062C59.3906 21.6625 59.2595 21.7812 59.1034 21.7812H42.3077C42.8009 24.6 44.7677 26.4312 47.8521 26.4312C49.9001 26.4312 51.205 25.3 51.9106 23.95C51.998 23.7812 52.1915 23.6937 52.3789 23.7312L58.6601 25.1C58.8536 25.1437 58.9535 25.35 58.8724 25.5312C57.4051 28.8624 54.0647 32.1625 47.8022 32.1625C39.5792 32.1625 35.196 26.7937 35.196 19.9937C35.196 13.1937 39.754 7.82495 47.6648 7.82495ZM52.4913 17.4875C52.1791 14.8062 50.3934 13.3687 47.7959 13.3687C44.3993 13.3687 42.9695 15.1125 42.4326 17.4875H52.4913Z" fill="#FFF5ED"/>
<path d="M61.6571 31.1375V8.84995C61.6571 8.6812 61.7944 8.5437 61.963 8.5437H68.5002C68.6688 8.5437 68.8062 8.6812 68.8062 8.84995V11.4937C70.3734 9.0312 72.696 7.82495 75.6868 7.82495C80.0637 7.82495 83.8224 10.825 83.8224 17.5312V31.1375C83.8224 31.3062 83.685 31.4437 83.5165 31.4437H76.9793C76.8107 31.4437 76.6733 31.3062 76.6733 31.1375V18.5625C76.6733 15.5625 75.1061 13.9125 72.8272 13.9125C70.3671 13.9125 68.8062 15.525 68.8062 19.1937V31.1437C68.8062 31.3125 68.6688 31.45 68.5002 31.45H61.963C61.7944 31.45 61.6571 31.3125 61.6571 31.1437V31.1375Z" fill="#FFF5ED"/>
<path d="M84.2595 8.53748H91.19C91.3274 8.53748 91.446 8.62498 91.4835 8.75623L96.6908 26.0312L101.898 8.75623C101.936 8.62498 102.054 8.53748 102.192 8.53748H109.122C109.334 8.53748 109.484 8.74998 109.409 8.94998L101.436 31.1562C101.374 31.325 101.211 31.4437 101.03 31.4437H92.3389C92.1578 31.4437 91.9955 31.3312 91.9331 31.1562L83.9598 8.94998C83.8849 8.74998 84.0347 8.53748 84.247 8.53748H84.2595Z" fill="#FFF5ED"/>
<path d="M124.582 31.1375V27.6437C123.464 29.9687 120.96 32.1625 117.07 32.1625C112.556 32.1625 109.203 29.3 109.203 25.275C109.203 21.025 112.019 17.85 118.188 17.85H121.766C123.733 17.85 124.269 16.4187 124.088 15.4812C123.82 13.8687 122.39 13.0187 120.38 13.0187C117.838 13.0187 116.302 14.425 116.109 16.3562C116.09 16.5312 115.928 16.6562 115.753 16.6312L109.69 15.6187C109.522 15.5937 109.403 15.4312 109.434 15.2625C110.421 9.98124 115.422 7.83124 120.554 7.83124C125.687 7.83124 131.369 9.08124 131.369 18.5687V31.1437C131.369 31.3125 131.231 31.45 131.063 31.45H124.881C124.713 31.45 124.575 31.3125 124.575 31.1437L124.582 31.1375ZM119.175 26.975C122.034 26.975 124.001 24.825 124.226 22.1437H119.893C117.258 22.1437 116.315 23.2187 116.365 24.6937C116.409 26.2625 117.664 26.975 119.181 26.975H119.175Z" fill="#FFF5ED"/>
<path d="M132.449 13.9562V8.84373C132.449 8.67498 132.586 8.53748 132.755 8.53748H135.308C136.495 8.53748 137.456 7.57498 137.456 6.38748V2.40623C137.456 2.23748 137.594 2.09998 137.762 2.09998H143.581C143.75 2.09998 143.887 2.23748 143.887 2.40623V8.53748H148.583C148.751 8.53748 148.889 8.67498 148.889 8.84373V13.9562C148.889 14.125 148.751 14.2625 148.583 14.2625H143.887V22.5375C143.887 25.2312 146.179 26.3312 148.57 25.4812C148.726 25.425 148.895 25.5437 148.895 25.7125V31.1062C148.895 31.3062 148.764 31.4812 148.57 31.525C147.952 31.6687 147.097 31.8 146.079 31.8C140.534 31.8 136.738 29.9187 136.738 21.8687V14.2625H132.755C132.586 14.2625 132.449 14.125 132.449 13.9562Z" fill="#FFF5ED"/>
<path d="M175 19.9937C175 26.7062 170.261 32.1625 162.488 32.1625C154.714 32.1625 149.975 26.7062 149.975 19.9937C149.975 13.2812 154.714 7.82495 162.488 7.82495C170.261 7.82495 175 13.2812 175 19.9937ZM167.845 19.9937C167.845 16.6812 166.015 13.9125 162.481 13.9125C158.947 13.9125 157.118 16.6875 157.118 19.9937C157.118 23.3 158.947 26.075 162.481 26.075C166.015 26.075 167.845 23.3 167.845 19.9937Z" fill="#FFF5ED"/>
<path d="M15.9591 40C16.9453 40 17.7448 39.1998 17.7448 38.2125C17.7448 37.2253 16.9453 36.425 15.9591 36.425C14.9728 36.425 14.1733 37.2253 14.1733 38.2125C14.1733 39.1998 14.9728 40 15.9591 40Z" fill="#87E64B"/>
<path d="M26.2238 26.025L16.1526 27.1063C15.9653 27.125 15.8716 26.8938 16.0215 26.775L25.8741 19.0938C26.511 18.5688 26.9231 17.7563 26.7483 16.8813C26.5734 15.5438 25.4683 14.6688 24.0697 14.8438L13.3616 16.4125C13.1743 16.4375 13.0744 16.2 13.2243 16.0813L23.8387 7.96877C25.9303 6.33752 26.1051 3.13752 24.1883 1.27502C22.4463 -0.468727 19.6491 -0.412477 17.9071 1.33127L0.805442 18.75C0.168579 19.45 -0.124877 20.3813 0.0499478 21.3688C0.343404 22.9438 1.91059 23.9875 3.48401 23.7L12.706 21.8188C12.9058 21.775 13.012 22.0438 12.8434 22.1563L2.61613 28.7125C1.33616 29.525 0.755492 30.9813 1.16134 32.4375C1.56718 34.3563 3.49026 35.4625 5.3509 35L20.6419 31.2313C20.8167 31.1875 20.9416 31.3875 20.8292 31.525L18.4441 34.475C17.8072 35.2875 18.8499 36.3938 19.724 35.7563L27.5787 29.2938C28.9773 28.1313 28.047 25.8563 26.2425 26.0313L26.2238 26.025Z" fill="#87E64B"/>
</g>
<g clip-path="url(#clip1_45_192)">
<path d="M216 26.1471C216 27.3765 215.15 28.9412 214.102 29.6118L200.87 38.3015C199.822 38.9721 198.122 38.9721 197.102 38.3015L183.898 29.6118C182.85 28.9412 182 27.3765 182 26.1471V13.853C182 12.6235 182.85 11.0588 183.898 10.3883L197.102 1.6706C198.15 1.00002 199.85 1.00002 200.898 1.6706L214.13 10.3603C215.178 11.0309 216.028 12.5956 216.028 13.825V26.1471H216Z" fill="#F38844"/>
<path d="M194.467 16.0883H203.533V17.7647H194.467V16.0883ZM193.333 18.8824H204.667V20.5588H193.333V18.8824ZM191.917 21.6765H206.083V23.353H191.917V21.6765ZM199 9.66178C204.78 9.66178 209.483 14.3 209.483 20C209.483 25.7 204.78 30.3383 199 30.3383C193.22 30.3383 188.517 25.7 188.517 20C188.517 14.3 193.22 9.66178 199 9.66178ZM199 8.82355C192.738 8.82355 187.667 13.825 187.667 20C187.667 26.175 192.738 31.1765 199 31.1765C205.262 31.1765 210.333 26.175 210.333 20C210.333 13.825 205.262 8.82355 199 8.82355Z" fill="white"/>
<path opacity="0.08" d="M214.102 10.3883L200.898 1.6706C200.388 1.33531 199.708 1.16766 199 1.16766V38.8324C199.68 38.8324 200.36 38.6647 200.898 38.3294L214.13 29.6397C215.178 28.9691 216.028 27.4044 216.028 26.175V13.853C216 12.6235 215.15 11.0588 214.102 10.3883Z" fill="black"/>
<path d="M199 2.28531C199.482 2.28531 199.935 2.39708 200.247 2.6206L213.478 11.3103C214.215 11.7853 214.867 12.9868 214.867 13.853V26.1471C214.867 27.0132 214.215 28.2147 213.478 28.6897L200.247 37.3794C199.935 37.575 199.482 37.7147 199 37.7147C198.518 37.7147 198.065 37.603 197.753 37.3794L184.522 28.6897C183.785 28.2147 183.133 27.0132 183.133 26.1471V13.853C183.133 12.9868 183.785 11.7853 184.522 11.3103L197.753 2.6206C198.065 2.39708 198.518 2.28531 199 2.28531ZM199 1.16766C198.32 1.16766 197.64 1.33531 197.102 1.6706L183.898 10.3883C182.85 11.0588 182 12.6235 182 13.853V26.1471C182 27.3765 182.85 28.9412 183.898 29.6118L197.13 38.3015C197.64 38.6368 198.32 38.8044 199.028 38.8044C199.737 38.8044 200.388 38.6368 200.927 38.3015L214.158 29.6118C215.207 28.9412 216.057 27.3765 216.057 26.1471V13.853C216.057 12.6235 215.207 11.0588 214.158 10.3883L200.898 1.6706C200.36 1.33531 199.68 1.16766 199 1.16766Z" fill="#F38844"/>
</g>
<defs>
<clipPath id="clip0_45_192">
<rect width="175" height="40" fill="white"/>
</clipPath>
<clipPath id="clip1_45_192">
<rect width="34" height="38" fill="white" transform="translate(182 1)"/>
</clipPath>
</defs>
</svg>
