<svg width="83" height="67" viewBox="0 0 83 67" fill="none" xmlns="http://www.w3.org/2000/svg">
<path d="M2.5 45C2.5825 44.5025 2.915 43.505 3.45625 42.5037C3.96489 41.5628 4 40.01 4.29 38.7537C4.54614 37.6442 5.165 36.755 5.4575 35.7125C5.78611 34.5413 5.915 33.505 6.24875 32.5037C6.5825 31.5025 6.75 30.505 6.99875 29.5037C7.25322 28.4795 7.83 27.505 8.29 26.5037C8.76541 25.469 9.165 24.505 9.4575 23.5037C9.74044 22.5352 9.915 21.505 10.2075 20.5037C10.4904 19.5352 10.665 18.505 10.8325 16.7137C10.9073 15.9136 12.33 17.995 13.2463 18.7475C14.1628 19.5002 14.995 20.33 15.9963 21.0387C17.0822 21.8075 17.995 22.58 19.2038 23.2475C20.2883 23.8464 21.245 24.58 22.2463 25.04C23.3188 25.5327 24.245 26.33 25.2463 26.8312C26.3656 27.3916 27.245 28.08 28.2463 28.7062C29.18 29.2903 30.245 29.83 31.2463 30.2487C32.2466 30.6671 33.245 31.165 34.2463 31.54C35.3127 31.9394 36.245 32.415 37.2463 32.79C38.3127 33.1894 39.245 33.665 40.2463 34.2062C41.1642 34.7025 42.41 35.16 43.4963 35.79C43.9953 36.0794 44.4975 36.415 44.9137 36.7887C45.7865 37.5724 45.415 39.245 45.7487 40.2462C46.0825 41.2475 46.415 42.245 46.7075 43.3287C47.0786 44.7038 47.165 45.745 47.2912 48.0325C47.3728 49.51 47.665 50.495 47.7912 52.5337C47.8684 53.7796 48.25 55.075 48.4987 56.2462C48.9157 58.2095 48.42 61.245 47.7113 62.205C47.0027 63.1648 45.755 63.25 44.465 63.4575C40.7197 64.0599 37.005 62.335 35.7962 62.2087C34.616 62.0855 33.505 61.335 32.4625 60.7937C31.1064 60.0897 29.505 59.67 27.0513 58.8362C25.7592 58.3972 24.59 58.085 23.5037 57.5437C22.5464 57.0667 21.67 56.505 20.2575 55.8362C17.6914 54.6213 16.505 54.17 15.5037 53.7512C14.5034 53.3329 13.505 52.835 12.4625 52.46C11.181 51.999 10.255 51.335 9.04625 50.96C7.92276 50.6114 6.84 49.92 5.75375 49.46C4.70513 49.0159 3.755 48.585 2.75375 47.9612C2.255 47.505 1.9175 47.0025 1.71 46.5037C1.585 46.2525 1.42 46.005 1 45.5" stroke="white" stroke-width="2" stroke-linecap="round"/>
<path d="M45 36.75C45.4975 36.75 46.495 36.585 47.7037 36.0438C48.7164 35.5903 49.745 35.5 50.7875 35.2925C51.9805 35.055 52.995 34.835 53.9963 34.46C55.0627 34.0606 55.995 33.585 57.0375 33.0025C58.2439 32.3284 59.245 31.67 60.2463 31.0025C61.2475 30.335 62.245 29.67 63.2463 29.0025C64.2871 28.3086 65.245 27.42 66.2463 26.7525C67.2475 26.085 68.245 25.42 68.79 24.5037C69.3934 23.4893 70.08 22.505 70.7887 21.5038C71.245 21.005 71.665 20.5025 72.0387 20.0038C72.2475 19.7525 72.495 19.505 72.75 19.25" stroke="white" stroke-width="2" stroke-linecap="round"/>
<path d="M73.75 18.75C73.915 19.2475 74.58 20.245 75.2475 21.2462C75.8907 22.2111 76.33 23.245 76.9975 24.2463C77.665 25.2475 78.33 26.245 78.9975 27.2463C79.6407 28.2111 79.915 29.245 80.415 30.2463C80.8685 31.1545 80.915 32.245 81.2487 33.2463C81.5825 34.2475 81.75 35.245 81.9575 36.37C82.255 37.9832 80.92 38.995 80.0037 39.7062C79.1047 40.4042 78.005 41.08 77.0037 41.7475C76.0025 42.415 75.005 43.08 74.0037 43.955C73.0422 44.7953 72.005 45.58 71.0037 46.2887C69.9178 47.0575 69.005 47.83 68.045 48.5387C67.0945 49.2405 66.255 50.08 65.0462 50.7475C63.9617 51.3464 63.005 52.245 62.0037 52.9975C61.0418 53.7205 60.005 54.495 58.9625 55.33C57.694 56.346 56.755 57.08 55.7537 57.7475C54.7525 58.415 53.755 59.08 52.7537 59.7062C51.7888 60.3098 50.755 60.915 49.7537 61.2487C49.5025 61.3325 49.255 61.415 49.0037 61.4987C48.7525 61.5825 48.505 61.665 48 62" stroke="white" stroke-width="2" stroke-linecap="round"/>
<path d="M10.25 17.25C10.25 16.7525 10.58 15.755 11.2888 14.795C11.9693 13.8732 13.245 13.67 14.2462 13.21C15.281 12.7346 16.41 12.17 17.4963 11.5438C18.5457 10.9387 19.745 10.17 20.7463 9.75125C21.7199 9.34403 22.745 8.92 23.7463 8.46C24.781 7.98459 25.745 7.585 26.7463 7.04375C27.7151 6.52002 28.745 5.92 29.7463 5.46C30.8188 4.96725 31.745 4.17 32.705 3.46125C33.6074 2.79505 34.495 2.335 35.4963 2.0425C36.4648 1.75956 38.32 1.75 39.7463 1.99875C40.786 2.18009 41.745 2.665 42.9538 2.99875C44.0369 3.29782 44.995 3.915 45.9963 4.45625C46.9651 4.97998 47.995 5.415 48.9963 5.95625C49.9372 6.46489 50.995 6.83 51.9963 7.24875C53.1154 7.7168 54.495 8.08 55.4963 8.49875C56.4966 8.91713 57.495 9.415 58.4963 9.9975C59.5364 10.6026 60.495 11.33 61.4963 12.0388C62.5822 12.8075 63.495 13.415 64.4963 14.205C65.4239 14.9369 66.495 15.33 67.4963 15.79C68.6723 16.3303 69.745 17.165 70.7463 17.7475C71.245 18.08 71.7475 18.3325 72.2463 18.4988C72.4975 18.5825 72.745 18.665 73.25 18.75" stroke="white" stroke-width="2" stroke-linecap="round"/>
<path d="M3.74999 49.25C3.66749 49.7475 3.49999 51.075 3.62374 52.3663C3.73153 53.4909 5.49499 53.415 6.49624 53.9563C6.7436 54.09 6.99499 54.165 7.20499 54.0837C7.41499 54.0025 7.57999 53.755 7.66499 53.4625C7.74999 53.17 7.74999 52.84 7.74999 52.5" stroke="white" stroke-width="2" stroke-linecap="round"/>
<path d="M29.25 60.75C29.415 61.2475 29.915 62.245 30.3312 63.205C30.773 64.2239 32.245 64.165 33.4538 64.2912C34.5124 64.4018 35.495 64.83 36.4963 65.125C36.7475 65.085 36.995 64.92 37.1638 64.7113C37.3325 64.5025 37.415 64.255 37.75 63.75" stroke="white" stroke-width="2" stroke-linecap="round"/>
<path d="M23.25 19.5C23.3325 19.5 23.415 19.5 23.4988 19.3763C23.5825 19.2525 23.665 19.005 23.8313 18.8363C23.9975 18.6675 24.245 18.585 25 18" stroke="white" stroke-width="2" stroke-linecap="round"/>
<path d="M23.3125 19.9375C23.4363 20.0619 23.8112 20.27 24.0616 20.3747C24.305 20.4765 24.5613 20.5825 24.8116 20.7287C24.8688 20.7622 24.9362 20.75 24.9887 20.719C25.2177 20.5841 25.4363 20.4175 25.6866 20.3128C25.9367 20.2082 26.145 20.0425 26.27 19.8865C26.3587 19.7759 26.23 19.5637 26.115 19.3134C26.0548 19.1824 25.9588 19.0631 25.8653 18.9694C25.6814 18.7849 25.3756 19.1037 25.3231 19.1147C24.9466 19.1931 25.7287 18.5637 25.8847 18.3547C25.9184 18.3094 25.9987 18.3537 26.0409 18.3953C26.1662 18.6244 26.3325 18.8737 26.5616 19.0619C26.6244 19.1037 26.6863 19.145 26.875 19.3125" stroke="white" stroke-width="2" stroke-linecap="round"/>
<path d="M37.1875 26.875C37.2288 26.7506 37.395 26.5012 37.6241 26.3028C37.8755 26.085 38.1238 25.9587 38.3741 25.8131C38.6341 25.6618 38.8737 25.48 39.1656 25.4684C39.453 25.457 39.6238 25.7912 39.8741 25.9369C40.1246 26.0826 40.3738 26.2075 40.6241 26.3122C40.8742 26.4168 41.1237 26.5412 41.3534 26.749C41.4095 26.7998 41.4163 26.8737 41.4166 26.9365C41.4179 27.2002 41.1675 27.4362 40.9384 27.6762C40.7345 27.8899 40.4387 27.9575 40.1781 28.0519C39.8922 28.1554 39.6263 28.125 39.3241 28.1872C39.0019 28.2535 38.6881 28.2294 38.5634 28.1569C38.246 27.9723 38.2713 27.5637 38.3328 27.3134C38.4069 27.0123 38.8112 27.0625 38.9575 27.0419C39.5191 26.9627 37.5006 26.9787 37.3863 27.0722C37.3289 27.119 37.2925 27.1862 37.2713 27.249C37.25 27.3119 37.25 27.3737 37.3016 27.4056C37.3531 27.4375 37.4562 27.4375 37.5625 27.4375" stroke="white" stroke-width="2" stroke-linecap="round"/>
<path d="M41.375 8.87501C41.0244 8.81251 40.1475 8.85376 39.8656 8.94751C39.7027 9.00169 39.5631 9.08313 39.4487 9.14532C39.2048 9.27794 39.2087 9.62376 39.1978 9.97782C39.1891 10.2588 39.3537 10.4988 39.5097 10.7284C39.6616 10.9522 40.4937 10.9375 40.9991 10.8753C41.2681 10.8422 41.4369 10.6463 41.5306 10.4909C41.6864 10.2329 41.5212 9.93813 41.4278 9.81344C41.3265 9.67821 41.1881 9.60438 41.0016 9.57313C40.4458 9.48004 39.9412 9.79001 39.5634 9.95782C39.4946 9.98839 39.4387 10.0613 39.4069 10.1344C39.3434 10.28 39.4162 10.4575 39.52 10.6031C39.7381 10.9092 40.165 11.02 40.54 11.1144C41.0462 11.2418 41.4762 10.98 41.8116 10.8234C42.061 10.707 42.27 10.5013 42.4266 10.2509C42.4982 10.1363 42.5 9.87688 42.4484 9.54407C42.1256 9.14626 41.9381 9.04188 41.7825 9.01063C41.6887 9.00001 41.565 9.00001 41.4375 9.00001" stroke="white" stroke-width="2" stroke-linecap="round"/>
<path d="M50.375 16.5C50.5825 16.3762 50.9975 15.96 51.4981 15.6262C51.7475 15.46 51.9987 15.2512 52.2481 15.105C52.7225 14.8268 53.2475 15.665 53.7481 15.9987C54.2686 16.3457 54.7475 16.79 55.0406 17.2275C55.3608 17.7053 55.79 18.1225 56.1238 18.6231C56.4988 19.1237 56.8325 19.4987 56.9781 19.7481C57.0413 19.8737 57.0825 19.9975 57.25 20.25" stroke="white" stroke-width="2" stroke-linecap="round"/>
</svg>
