<svg width="177" height="46" viewBox="0 0 177 46" fill="none" xmlns="http://www.w3.org/2000/svg">
<path fill-rule="evenodd" clip-rule="evenodd" d="M68.499 18.428L65.33 19.898C64.524 19.091 63.746 18.486 62.104 18.486C60.232 18.486 58.244 19.898 58.244 22.605C58.244 25.284 60.232 26.666 62.104 26.666C63.746 26.666 64.524 26.09 65.33 25.284L68.528 26.753C67.088 29.173 64.841 30.296 62.047 30.296C58.705 30.296 54.241 27.876 54.241 22.605C54.241 17.391 58.705 14.828 62.047 14.828C64.783 14.828 67.087 16.008 68.499 18.428ZM72.666 22.634C72.666 25.284 74.654 26.695 76.526 26.695C78.37 26.695 80.386 25.284 80.386 22.634C80.386 19.897 78.37 18.486 76.526 18.486C74.654 18.486 72.666 19.897 72.666 22.634ZM84.361 22.634C84.361 27.876 79.925 30.354 76.526 30.354C73.127 30.354 68.663 27.876 68.663 22.634C68.663 17.391 73.127 14.828 76.526 14.828C79.925 14.828 84.361 17.391 84.361 22.634ZM96.74 22.547C96.74 19.869 94.84 18.486 92.795 18.486C90.75 18.486 88.992 19.869 88.992 22.547C88.992 25.313 90.75 26.695 92.795 26.695C94.84 26.695 96.74 25.313 96.74 22.547ZM100.658 9.70101V30.065H96.54V27.703C96.54 28.769 94.61 30.353 92.076 30.353C88.936 30.353 84.99 27.876 84.99 22.547C84.99 17.391 88.936 14.827 92.076 14.827C94.61 14.827 96.54 16.498 96.54 17.19V9.70001H100.66L100.658 9.70101ZM106.182 21.107H113.326C112.865 19.264 111.223 18.342 109.726 18.342C108.256 18.342 106.73 19.264 106.182 21.107ZM116.955 24.017H106.153C106.643 25.889 108.17 26.868 110.157 26.868C112.03 26.868 112.75 26.436 113.815 25.86L116.091 28.078C114.766 29.432 112.951 30.353 110.013 30.353C106.298 30.353 102.063 27.79 102.063 22.633C102.063 17.391 106.355 14.828 109.725 14.828C113.124 14.828 117.848 17.392 116.955 24.017ZM121.607 22.547C121.607 25.313 123.364 26.695 125.409 26.695C127.454 26.695 129.355 25.313 129.355 22.547C129.355 19.869 127.454 18.486 125.409 18.486C123.364 18.486 121.607 19.869 121.607 22.547ZM129.154 17.19V15.087H133.272V30.065H129.154V27.703C129.154 28.769 127.224 30.353 124.689 30.353C121.549 30.353 117.603 27.876 117.603 22.547C117.603 17.391 121.549 14.827 124.689 14.827C127.224 14.827 129.154 16.498 129.154 17.19ZM147.127 22.547C147.127 19.869 145.37 18.486 143.325 18.486C141.28 18.486 139.379 19.869 139.379 22.547C139.379 25.313 141.279 26.695 143.325 26.695C145.37 26.695 147.127 25.313 147.127 22.547ZM151.131 22.547C151.131 27.877 147.185 30.353 144.045 30.353C141.51 30.353 139.58 28.769 139.58 27.703V30.065H135.461V9.70101H139.58V17.19C139.58 16.498 141.51 14.828 144.045 14.828C147.185 14.828 151.131 17.39 151.131 22.547Z" fill="white"/>
<mask id="mask0_1_58" style="mask-type:luminance" maskUnits="userSpaceOnUse" x="0" y="0" width="177" height="45">
<path d="M0 44.989H176.955V0H0V44.989Z" fill="white"/>
</mask>
<g mask="url(#mask0_1_58)">
<path fill-rule="evenodd" clip-rule="evenodd" d="M152.573 30.065H156.693V9.70001H152.573V30.065ZM162.205 21.107H169.349C168.888 19.264 167.246 18.342 165.749 18.342C164.279 18.342 162.752 19.264 162.205 21.107ZM172.978 24.017H162.176C162.666 25.889 164.193 26.868 166.18 26.868C168.052 26.868 168.773 26.436 169.838 25.86L172.114 28.078C170.789 29.432 168.974 30.353 166.036 30.353C162.32 30.353 158.086 27.79 158.086 22.633C158.086 17.391 162.378 14.828 165.748 14.828C169.147 14.828 173.871 17.392 172.978 24.017Z" fill="white"/>
</g>
<mask id="mask1_1_58" style="mask-type:luminance" maskUnits="userSpaceOnUse" x="0" y="0" width="177" height="45">
<path d="M0 44.989H176.955V0H0V44.989Z" fill="white"/>
</mask>
<g mask="url(#mask1_1_58)">
<path fill-rule="evenodd" clip-rule="evenodd" d="M14.996 29.992C14.996 38.275 21.71 44.989 29.992 44.989C38.275 44.989 44.989 38.275 44.989 29.992C44.989 21.71 38.275 14.996 29.992 14.996V29.992H14.996Z" fill="#FFB199"/>
</g>
<mask id="mask2_1_58" style="mask-type:luminance" maskUnits="userSpaceOnUse" x="0" y="0" width="177" height="45">
<path d="M0 44.989H176.955V0H0V44.989Z" fill="white"/>
</mask>
<g mask="url(#mask2_1_58)">
<path fill-rule="evenodd" clip-rule="evenodd" d="M29.992 14.996V0H0V29.992H14.996V14.996H29.992Z" fill="#165260"/>
</g>
</svg>
