<svg width="266" height="136" viewBox="0 0 266 136" fill="none" xmlns="http://www.w3.org/2000/svg">
<path d="M138.056 80.0714L129.565 67.3429H122.49V80.0714H114V40.4714H131.924C141.358 40.4714 147.018 45.1857 147.018 53.6714C147.018 60.2714 143.716 64.0429 138.527 65.9286L148.433 80.0714H138.056ZM138.056 53.6714C138.056 49.9 135.226 48.0143 130.981 48.0143H122.49V59.3286H131.452C135.697 59.3286 138.056 57.4429 138.056 53.6714Z" fill="white"/>
<path d="M155.036 80.0714V40.4714H184.752V48.0143H163.527V56.0286H182.394V63.5714H163.527V72.0572H185.224V80.0714H155.036Z" fill="white"/>
<path d="M222.487 80.0714L218.713 71.1143H202.204L198.431 80.0714H189.469L206.45 40H214.468L231.449 80.0714H222.487ZM210.223 50.3714L205.035 63.1H215.412L210.223 50.3714Z" fill="white"/>
<path d="M237.581 80.0714V40.4714H246.071V72.0572H265.881V80.0714H237.581Z" fill="white"/>
<path d="M50.9035 21.1714L17.8858 48.0429V77.2714C17.8858 79.1572 19.3009 80.5714 20.7159 80.5714H40.5265C41.9416 80.5714 43.3566 79.1572 43.3566 77.7429V60.7714C43.3566 59.3572 44.7717 57.9429 46.1867 57.9429H57.5071C58.9221 57.9429 60.3372 59.3572 60.3372 60.7714V77.7429C60.3372 79.1572 61.7522 80.5714 63.1673 80.5714H82.9779C84.3929 80.5714 85.808 79.1572 85.808 77.7429V48.5143L52.7903 21.6429C52.7903 20.7 51.8469 20.7 50.9035 21.1714ZM102.788 40.0286L87.6947 27.7714V2.78573C87.6947 1.37144 86.7513 0.428585 85.3363 0.428585H75.9026C74.4876 0.428585 73.5442 1.37144 73.5442 2.78573V15.5143L57.5071 2.3143C54.2053 -0.514272 49.9602 -0.514272 46.6584 2.3143L1.37699 39.5572C0.905306 40.5 0.433624 41.9143 1.37699 42.8572L6.0938 48.5143C7.03716 49.4572 7.98053 49.4572 8.92389 48.9857L50.9035 14.5714C51.8469 14.1 52.7903 14.1 53.7336 14.5714L95.7133 48.9857C96.6566 49.9286 98.0717 49.4572 98.5434 48.5143L103.26 42.8572C103.732 41.9143 103.732 40.5 102.788 40.0286Z" fill="#03B5C3"/>
<path d="M21 134.543V94.9429H49.3009V97.7714H24.3018V113.329H46.9425V115.686H24.3018V131.714H49.7726V134.543H21Z" fill="#A9A9A9"/>
<path d="M72.4133 135.014C66.2814 135.014 61.0929 133.129 56.3761 128.886L58.2628 126.529C62.508 130.771 66.7531 132.186 72.4133 132.186C78.5451 132.186 82.3186 128.886 82.3186 124.171C82.3186 119.929 79.9602 117.571 70.9983 115.686C61.5646 113.8 57.7912 110.5 57.7912 104.371C57.7912 98.7143 62.9796 94 70.5265 94C76.1867 94 79.9602 95.4143 84.2053 98.7143L82.3186 101.543C78.5451 98.2429 74.7717 96.8286 70.5265 96.8286C64.8664 96.8286 60.6212 100.129 60.6212 104.371C60.6212 108.614 62.9797 110.971 71.9416 112.857C80.9035 114.743 85.1487 118.043 85.1487 123.7C85.1487 130.3 79.9602 135.014 72.4133 135.014Z" fill="#A9A9A9"/>
<path d="M108.261 97.3V134.543H105.431V97.3H91.7522V94.9429H122.411V97.7714H108.261V97.3Z" fill="#A9A9A9"/>
<path d="M158.731 134.543L153.543 123.229H129.958L125.242 134.543H122.411L140.807 94.4714H143.637L162.033 134.543H158.731ZM142.222 97.7714L131.845 120.4H152.599L142.222 97.7714Z" fill="#A9A9A9"/>
<path d="M179.485 97.3V134.543H176.655V97.3H162.976V94.9429H193.635V97.7714H179.485V97.3Z" fill="#A9A9A9"/>
<path d="M202.126 134.543V94.9429H230.427V97.7714H205.427V113.329H228.068V115.686H205.427V131.714H230.898V134.543H202.126Z" fill="#A9A9A9"/>
<path d="M237.973 94.9429H264.388V96.8286L246.464 134.071H243.162L261.086 97.3H237.973V94.9429Z" fill="#A9A9A9"/>
</svg>
