<svg width="30" height="19" viewBox="0 0 30 19" fill="none" xmlns="http://www.w3.org/2000/svg">
<path d="M1 11.875C1.24875 11.7925 1.7475 11.46 2.24812 11.2506C2.73497 11.047 3.2475 10.9175 3.74813 10.7506C4.23778 10.5874 4.7475 10.46 5.24813 10.2712C5.7202 10.0933 6.2475 10.0425 6.74813 9.87562C7.26247 9.70417 7.7475 9.5 8.24813 9.2925C8.71703 9.09815 9.33 9.0425 10.0175 8.89625C11.2234 8.63973 12.16 8.75 13.6156 8.64625C16.0863 8.47015 17.8737 8.66625 18.7419 8.72875C22.3649 8.98958 22.955 8.875 23.5187 8.99937C24.1221 9.13249 24.6225 9.2075 25.1231 9.37437C25.6128 9.53759 26.1225 9.5825 26.6231 9.72875C26.7488 9.75 26.8725 9.75 26.9981 9.77062C27.1238 9.79125 27.2475 9.8325 27.625 10" stroke="#5800FD" stroke-width="2" stroke-linecap="round"/>
<path d="M19.25 1C19.3738 1.16625 20.2025 1.58 20.9144 1.895C21.6232 2.20867 22.1225 2.54 22.6231 2.87375C23.1238 3.2075 23.705 3.705 24.2688 4.26875C24.8535 4.85349 25.2475 5.3725 25.6238 5.87313C25.9995 6.37315 26.415 6.8725 26.7488 7.37313C27.1278 7.94166 27.5825 8.4975 27.8325 8.99813C28.063 9.45976 28.1662 9.87375 28.1875 10.1231C28.2346 10.676 27.3775 10.915 26.8769 11.3525C26.4201 11.7517 25.6725 12.5775 25.1056 13.2481C24.677 13.7552 24.21 14.1225 23.7519 14.4987C23.2936 14.8751 22.96 15.3725 22.5225 15.8731C22.1675 16.3738 21.835 16.8725 21.2938 17.4769C21.1675 17.6238 21.085 17.7475 21 17.875" stroke="#5800FD" stroke-width="2" stroke-linecap="round"/>
</svg>
