<svg width="181" height="217" viewBox="0 0 181 217" fill="none" xmlns="http://www.w3.org/2000/svg">
<path d="M176.085 17.3971C177.794 11.6935 179.119 5.8814 180.049 0C181.27 12.378 180.988 24.8586 179.21 37.1687C176.567 55.7476 170.236 74.3212 158.089 88.8991C148.444 100.615 135.024 108.958 120.489 113.095C112.432 115.398 104.132 116.745 95.761 117.106C104.44 120.108 112.111 125.474 117.911 132.601C125.011 141.464 128.742 152.806 128.921 164.126C129.181 173.342 127.296 182.694 122.931 190.864C117.913 200.412 109.825 207.987 99.9743 212.365C90.8707 216.572 80.5703 217.672 70.6706 216.599C59.2072 215.355 48.5173 210.211 40.3866 202.026C33.4384 194.979 28.9164 185.67 27.178 175.944C25.315 165.188 26.2845 153.841 30.6007 143.763C15.6753 159.095 5.79191 178.893 0.685015 199.565C-0.214493 186.502 0.696753 173.377 3.39281 160.564C7.02666 143.324 14.4189 126.409 26.9181 113.772C38.9353 101.406 55.4095 94.1036 72.3007 91.5448C82.9044 89.6419 93.7897 90.6611 104.361 88.5196C120.918 85.647 136.204 77.7846 148.178 65.9831C161.69 52.69 170.659 35.4014 176.085 17.3971ZM73.5788 125.282C64.0236 126.137 55.1644 130.643 48.8403 137.865C36.417 152.063 35.5288 174.73 46.3329 190.11C51.2948 197.213 58.5703 202.367 66.9121 204.688C76.9905 207.345 88.2279 206.315 97.2394 200.893C103.871 196.976 109.15 191.126 112.371 184.125C116.557 175.267 117.434 164.982 115.29 155.457C113.058 145.699 107.21 136.612 98.7125 131.164C91.3744 126.279 82.3033 124.447 73.5788 125.276V125.282Z" fill="#2B2B2B"/>
<path d="M73.5787 125.276C82.3032 124.447 91.3743 126.279 98.7232 131.175C107.22 136.596 113.069 145.688 115.3 155.468C117.467 164.993 116.568 175.277 112.381 184.136C109.161 191.137 103.882 196.987 97.2502 200.904C88.2224 206.293 76.9851 207.339 66.9229 204.699C58.5811 202.378 51.3056 197.224 46.3437 190.121C35.5126 174.751 36.4278 152.074 48.8511 137.876C55.1698 130.651 64.025 126.139 73.5787 125.276ZM80.1532 138.949L79.9799 138.916L79.8121 139.133C70.6543 138.645 61.3991 143.096 56.2651 150.73C53.4645 154.813 51.8633 159.601 51.6431 164.549C51.4229 169.498 52.5926 174.409 55.0195 178.725C57.4288 182.965 60.9462 186.468 65.1939 188.858C69.4417 191.249 74.2595 192.435 79.1302 192.292C84.0009 192.148 88.7405 190.679 92.8402 188.042C96.9399 185.406 100.245 181.701 102.4 177.327C104.496 173.006 105.383 168.198 104.967 163.413C104.55 158.629 102.845 154.047 100.034 150.155L100.072 150.036C100.852 145.872 99.4544 141.318 96.1671 138.58C91.7642 134.601 84.3395 134.709 80.1532 138.949Z" fill="#F9BA0F"/>
<path d="M80.1533 138.949C84.3395 134.709 91.7642 134.612 96.1671 138.58C99.4544 141.318 100.852 145.872 100.072 150.036C97.3261 146.734 94.1146 143.725 90.1937 141.904C87.0635 140.261 83.5922 139.665 80.1533 138.949Z" fill="#FEF4D8"/>
<path d="M56.2651 150.713C61.4045 143.08 70.6543 138.629 79.8121 139.117C78.3444 140.846 77.0663 142.814 76.6602 145.081C76.2039 147.271 76.3762 149.545 77.1573 151.642C77.9384 153.738 79.2962 155.57 81.0739 156.926C82.9994 158.39 85.3208 159.24 87.7357 159.365C90.1505 159.49 92.547 158.884 94.6128 157.626C97.3115 155.932 99.2533 153.262 100.034 150.171C102.845 154.063 104.55 158.645 104.967 163.43C105.383 168.214 104.496 173.023 102.4 177.343C100.245 181.718 96.9399 185.422 92.8402 188.059C88.7405 190.695 84.0009 192.164 79.1302 192.308C74.2595 192.452 69.4417 191.265 65.1939 188.875C60.9462 186.485 57.4288 182.982 55.0195 178.742C52.5861 174.421 51.4128 169.504 51.633 164.549C51.8532 159.594 53.4581 154.8 56.2651 150.713Z" fill="black"/>
<path d="M79.8012 139.133L79.9691 138.916L80.1424 138.949C83.5542 139.665 87.0527 140.261 90.1829 141.887C94.1038 143.725 97.3152 146.734 100.061 150.019L100.023 150.139C99.2434 153.246 97.2905 155.93 94.575 157.625C92.5091 158.883 90.1127 159.49 87.6978 159.365C85.2829 159.24 82.9615 158.39 81.036 156.926C79.2584 155.57 77.9005 153.738 77.1194 151.642C76.3383 149.545 76.166 147.271 76.6223 145.08C77.0934 142.831 78.3444 140.863 79.8012 139.133Z" fill="#D6D6D6"/>
</svg>
