<svg width="58" height="67" viewBox="0 0 58 67" fill="none" xmlns="http://www.w3.org/2000/svg">
<path fill-rule="evenodd" clip-rule="evenodd" d="M28.016 15.2693C42.4354 15.2693 54.1246 26.8508 54.1192 41.1374C54.1192 55.4239 42.43 67.0055 28.0105 67.0001C13.6129 67.0001 1.93458 55.4563 1.90733 41.1914C1.87464 26.9048 13.5366 15.3017 27.956 15.2693C27.9778 15.2693 27.9942 15.2693 28.016 15.2693Z" fill="#008BF6"/>
<path fill-rule="evenodd" clip-rule="evenodd" d="M16.0652 63.2259C16.6864 63.1395 17.324 63.2151 17.9126 63.4365C20.948 64.6513 24.1904 65.2831 27.4656 65.2831C34.4301 65.2831 41.0785 62.416 45.8359 57.3785C46.3591 56.8925 47.0512 56.6226 47.7705 56.6334C43.0076 62.6482 35.7325 66.1685 28.016 66.1955C23.8471 66.2117 19.7382 65.1913 16.0652 63.2259Z" fill="#57B6FF"/>
<path fill-rule="evenodd" clip-rule="evenodd" d="M28.016 15.2693C28.828 15.2693 29.6127 15.2693 30.4029 15.3827C29.7816 15.5069 29.1386 15.5069 28.5173 15.3827C28.3484 15.3557 28.1795 15.3179 28.016 15.2693ZM12.7355 62.2109C8.37046 59.1171 5.06805 54.7706 3.28061 49.7547C3.46044 49.7439 3.64028 49.7439 3.82011 49.7547H4.63209C4.68659 48.7612 5.08985 47.8217 5.77104 47.0928C6.12526 46.8336 6.52307 46.6501 6.94814 46.5475C6.09801 45.743 5.55851 44.6685 5.42227 43.5131C5.42227 43.1081 5.36233 42.687 5.36233 42.2496L2.64302 40.8998C2.35964 40.7486 2.10896 40.5488 1.89643 40.3059C2.01632 36.3968 3.02993 32.5687 4.86642 29.1077L7.19881 28.8971C7.70017 26.9642 8.34866 25.0636 9.13339 23.2279C10.7791 21.5325 12.6483 20.0639 14.6919 18.8598C15.3295 18.7464 15.9671 18.6709 16.5284 18.6115C19.1387 18.4063 21.7599 18.4333 24.3594 18.7086C25.3239 18.7842 26.2939 18.8814 27.1931 18.9948C27.313 18.687 27.4492 18.3793 27.6018 18.0823C28.2612 16.8567 31.7217 17.2994 33.4056 17.564C33.3347 16.9323 33.1876 16.3114 32.9587 15.7174C33.5581 15.8254 34.1303 15.955 34.6916 16.09C34.8497 16.6785 34.9423 17.2832 34.9641 17.8933C36.6971 18.3037 39.4327 19.146 39.569 20.377C39.5853 20.6956 39.5853 21.0141 39.569 21.3327C40.479 21.5811 41.3946 21.8294 42.3046 22.1156C44.1248 22.6555 45.9122 23.2927 47.6615 24.0324C54.2064 31.4294 55.9557 41.8609 52.1846 50.9587L50.9639 51.0559C50.8004 51.4608 50.6042 51.8334 50.4299 52.1951C49.4653 54.1605 46.9967 54.9272 44.9967 55.289C42.2229 55.6993 39.4109 55.7965 36.6153 55.5751C33.2802 55.3483 29.9615 54.9056 26.6863 54.2523C23.4111 53.6368 20.1796 52.7999 17.0189 51.7524C15.1333 51.1477 13.2914 50.4188 11.5094 49.5603V54.0795C12.3377 54.6086 13.0026 55.3537 13.444 56.223C14.9862 56.088 16.4521 55.4671 17.6183 54.4629C18.2777 53.9337 20.1033 54.7112 19.3403 56.8871C18.4957 59.8514 15.8636 61.9733 12.7682 62.1947L12.741 62.2163L12.7355 62.2109Z" fill="#006CBF"/>
<path fill-rule="evenodd" clip-rule="evenodd" d="M28.016 20.7172C39.4109 20.7172 48.6479 29.869 48.6479 41.159C48.6479 52.4489 39.4109 61.6007 28.016 61.6007C16.6319 61.6007 7.40045 52.4651 7.3841 41.186C7.36775 29.896 16.5938 20.728 27.9887 20.7118C27.9996 20.7118 28.0105 20.7118 28.016 20.7118V20.7172Z" fill="white"/>
<path fill-rule="evenodd" clip-rule="evenodd" d="M18.4902 50.9748C16.1033 53.2695 12.5066 53.8149 9.53666 52.3247L6.58847 58.1289C10.7846 60.4182 18.3376 60.726 20.4738 53.4369C21.1496 51.0882 19.166 50.3809 18.4902 50.9748Z" fill="#385661"/>
<path fill-rule="evenodd" clip-rule="evenodd" d="M19.0733 51.7308C16.6537 54.0309 13.1006 54.7329 9.97262 53.5342L7.83641 57.7295C9.34048 58.3882 10.9699 58.7121 12.6102 58.6851C15.9453 58.7229 18.8499 56.4498 19.5801 53.2264C19.7545 52.7945 19.7164 52.3086 19.482 51.9036C19.373 51.7956 19.2205 51.7308 19.0679 51.7308H19.0733Z" fill="#385661"/>
<path fill-rule="evenodd" clip-rule="evenodd" d="M16.2777 53.4747C14.2505 54.2576 11.9998 54.2576 9.97262 53.4747L9.09525 55.2295C11.4658 56.2122 14.1851 55.9314 16.2995 54.4844C16.839 54.0255 16.7246 53.4801 16.2777 53.4801V53.4747Z" fill="#598291"/>
<path fill-rule="evenodd" clip-rule="evenodd" d="M34.2611 54.4574C36.1412 55.9692 37.4437 58.0695 37.945 60.4182L42.9368 59.0576C41.6616 55.3591 37.9069 51.7308 34.2339 51.396L34.2611 54.4628V54.4574Z" fill="#385661"/>
<path fill-rule="evenodd" clip-rule="evenodd" d="M35.1876 54.0201C36.8115 55.4185 38.0104 57.238 38.648 59.2682L41.6943 58.4367C40.4845 55.8774 38.2502 53.1886 35.3401 52.1897L35.1876 54.0201Z" fill="#385661"/>
<path fill-rule="evenodd" clip-rule="evenodd" d="M40.2556 58.8363L41.6943 58.453C40.7788 56.4552 39.3673 54.7166 37.5962 53.3938C37.4055 53.5666 37.4818 53.9661 37.6943 54.1875C38.9423 55.4887 39.8305 57.0869 40.2556 58.8363Z" fill="#598291"/>
<path fill-rule="evenodd" clip-rule="evenodd" d="M20.5338 60.2078C20.5338 59.7866 20.4575 59.3439 20.4357 58.9227C20.3267 58.2262 20.6428 57.5297 21.2477 57.1518C22.5501 56.5092 23.9343 56.0611 25.3675 55.8181L26.4683 55.559H26.8062L27.907 55.7911C29.3348 56.0395 30.7244 56.4876 32.0268 57.1248C32.6426 57.5027 32.9696 58.2154 32.8497 58.9281C32.8497 59.4249 32.7898 59.8838 32.7353 60.4021C32.7353 60.6343 32.7353 60.8611 32.659 61.0932C31.1386 61.4334 29.58 61.6062 28.016 61.6008C25.4547 61.6062 22.9152 61.1364 20.5338 60.2132V60.2078Z" fill="#598291"/>
<path fill-rule="evenodd" clip-rule="evenodd" d="M21.3839 60.5154C21.324 59.9809 21.2858 59.4626 21.2477 58.8686C21.155 58.4745 21.324 58.0587 21.6727 57.8428C23.2477 57.1355 24.9152 56.6495 26.6209 56.3958C28.3266 56.6495 29.9887 57.1355 31.5636 57.8428C31.9015 58.0641 32.065 58.4745 31.9723 58.8686C31.9124 59.7325 31.8742 60.4614 31.7598 61.2551C28.2939 61.8976 24.7245 61.6439 21.3839 60.5154Z" fill="#D3E8EF"/>
<path fill-rule="evenodd" clip-rule="evenodd" d="M22.5501 57.4216C23.8798 56.9789 25.2422 56.6387 26.6209 56.3958V61.5413C25.3457 61.4549 24.0814 61.2497 22.8389 60.9366C22.7245 59.7703 22.6264 58.6095 22.5501 57.4216Z" fill="white"/>
<path fill-rule="evenodd" clip-rule="evenodd" d="M17.9289 58.9983C17.7164 57.9184 17.5638 56.8062 17.4439 55.7047C17.3676 54.9596 17.3295 54.2091 17.2695 53.4748C17.0733 52.4111 17.5584 51.3367 18.4902 50.7751C20.0651 49.8195 22.8607 49.1931 24.6863 48.7936C25.2476 48.6586 25.8089 48.5452 26.3702 48.4318L26.6427 48.3724L26.8825 48.4318C27.4438 48.5452 28.0051 48.664 28.5664 48.7936C30.392 49.1985 33.1876 49.7493 34.7625 50.7751C35.6671 51.3475 36.1467 52.3949 35.9832 53.4478C35.9232 54.1875 35.8851 54.9326 35.8088 55.6777C35.6508 57.2543 35.3892 58.8255 35.035 60.3697C32.7843 61.1904 30.4083 61.6115 28.016 61.6169C24.4847 61.6061 21.0133 60.7045 17.9289 59.0037V58.9983Z" fill="#598291"/>
<path fill-rule="evenodd" clip-rule="evenodd" d="M19.3621 59.711C18.8989 57.6268 18.621 55.5103 18.5284 53.3776C18.3976 52.7783 18.6483 52.1627 19.166 51.828C20.6046 50.9371 23.809 50.2298 26.6427 49.6359C29.4492 50.2298 32.6644 50.9371 34.1086 51.828C34.708 52.1897 34.7679 52.7081 34.7461 53.3776C34.6426 55.8235 34.2938 58.2532 33.7107 60.6289C33.7107 60.6289 33.7107 60.7422 33.6344 60.8178C31.8143 61.3146 29.9342 61.5737 28.0432 61.5737C25.046 61.6007 22.076 60.9636 19.3621 59.7056V59.711Z" fill="#598291"/>
<path fill-rule="evenodd" clip-rule="evenodd" d="M21.1114 60.4183C20.6755 58.0912 20.4194 55.7425 20.3376 53.3776C20.2177 52.8107 20.3976 52.2275 20.8226 51.828C21.9343 50.9371 24.4193 50.2298 26.6264 49.6359C28.8007 50.2298 31.2857 50.9371 32.4301 51.828C32.8552 52.2275 33.0404 52.8161 32.9151 53.3776C32.8334 55.8127 32.5609 58.237 32.1031 60.6289C32.0541 60.8448 31.9614 61.05 31.8306 61.2336C30.5827 61.4657 29.313 61.5791 28.0378 61.5791C25.6781 61.6061 23.3348 61.212 21.1169 60.4183H21.1114Z" fill="#7EAABA"/>
<path fill-rule="evenodd" clip-rule="evenodd" d="M18.8608 57.0383C18.6864 55.8019 18.6101 54.6896 18.512 53.3776C18.3812 52.7783 18.6319 52.1627 19.1496 51.828C20.5883 50.9371 23.7926 50.2298 26.6264 49.6359C29.4329 50.2298 32.6481 50.9371 34.0922 51.828C34.6916 52.1897 34.7516 52.7081 34.7298 53.3776C34.6317 54.6896 34.5554 55.7803 34.381 57.0383C33.084 57.3191 31.7762 57.5243 30.4574 57.6538C30.3211 57.67 30.2121 57.7672 30.1849 57.9022C30.1086 58.5879 29.7598 59.2196 29.2203 59.657C28.4792 60.2023 27.5691 60.4723 26.6482 60.4237C25.7163 60.4723 24.8008 60.2023 24.0487 59.657C23.5147 59.2142 23.1659 58.5879 23.0842 57.9022C23.0678 57.7672 22.9534 57.6592 22.8117 57.6538C21.4875 57.5297 20.1687 57.3245 18.8662 57.0383H18.8608Z" fill="#D3E8EF"/>
<path fill-rule="evenodd" clip-rule="evenodd" d="M26.6209 49.6305C28.7953 50.2244 31.2802 50.9317 32.4246 51.8226C32.8497 52.2222 33.035 52.8107 32.9097 53.3722C32.8334 54.7976 32.7734 55.9855 32.6208 57.3569C31.9451 57.4703 31.2367 57.5459 30.4628 57.6269C30.3266 57.6431 30.2176 57.7403 30.1903 57.8752C29.8906 59.684 28.3321 60.3481 26.6209 60.3481C24.9098 60.3481 23.3239 59.6408 23.0351 57.8482C23.0188 57.7133 22.9043 57.6053 22.7626 57.5999C22.0106 57.5243 21.3022 57.4487 20.6046 57.3299C20.4521 55.9585 20.3703 54.7706 20.3158 53.3452C20.1959 52.7783 20.3758 52.1952 20.8008 51.7956C21.9507 50.9533 24.4193 50.246 26.6209 49.6305Z" fill="white"/>
<path fill-rule="evenodd" clip-rule="evenodd" d="M24.1468 54.4197H25.4111C25.5692 54.4197 25.6945 54.5493 25.6999 54.7058V57.1895C25.6182 57.6053 25.8907 58.0102 26.3103 58.0912C26.4084 58.1128 26.5119 58.1128 26.61 58.0912C26.8498 58.1128 27.0841 58.0426 27.2748 57.9022C27.4329 57.7025 27.5037 57.4433 27.4656 57.1949V54.7112C27.4656 54.5547 27.5964 54.4305 27.7544 54.4251H29.0296C29.1822 54.4251 29.3075 54.5493 29.3075 54.7004C29.3075 54.7004 29.3075 54.7058 29.3075 54.7112V57.3245C29.3566 57.9508 29.095 58.5663 28.5991 58.9605C28.016 59.3816 27.2966 59.5814 26.5773 59.5328C25.8471 59.5868 25.1223 59.3816 24.5283 58.9605C24.0487 58.5555 23.7872 57.9454 23.8199 57.3245V54.7112C23.8362 54.5547 23.967 54.4305 24.1305 54.4251L24.1468 54.4197Z" fill="#0B87E8"/>
<path fill-rule="evenodd" clip-rule="evenodd" d="M24.1468 54.6032C24.0651 54.5978 23.9997 54.6572 23.9942 54.7382V57.3515C23.9561 57.9346 24.1959 58.5015 24.6427 58.8849C25.2095 59.2682 25.8907 59.4518 26.5773 59.414V58.2046C26.2939 58.2208 26.0106 58.129 25.7871 57.9562C25.6073 57.724 25.5201 57.4433 25.5365 57.1517V54.668C25.5365 54.587 25.4602 54.5277 25.3839 54.5331H24.1577V54.5978L24.1468 54.6032Z" fill="#57B6FF"/>
<path fill-rule="evenodd" clip-rule="evenodd" d="M27.2912 49.4415L26.6645 51.9792C27.1986 52.8808 29.3893 54.0957 30.4574 54.5006C30.9206 54.6896 31.3075 54.7328 31.629 54.3873C32.4029 53.5936 33.0622 51.3582 33.193 49.4253H27.2966V49.4469L27.2912 49.4415Z" fill="#3C942C"/>
<path fill-rule="evenodd" clip-rule="evenodd" d="M32.5118 49.4415C32.5118 49.8465 32.4137 50.2244 32.3593 50.5916C32.2067 51.7794 31.798 52.9241 31.1495 53.9338L31.0732 53.9931C30.9424 53.9931 30.817 53.9553 30.708 53.896C29.4983 53.3992 28.3757 52.7027 27.3893 51.8442L28.016 49.4415H32.5118Z" fill="#3C942C"/>
<path fill-rule="evenodd" clip-rule="evenodd" d="M32.0868 51.7308C31.9287 52.5137 31.6018 53.2534 31.1222 53.896L31.0459 53.9554C30.9151 53.9554 30.7898 53.9176 30.6808 53.8582C29.5419 53.3722 28.4737 52.7243 27.5201 51.9414H28.0214C28.5446 52.2816 29.1222 52.5245 29.7326 52.6703C29.471 52.4435 29.2258 52.1898 29.0078 51.9252C30.0323 51.9252 31.0786 51.8658 32.0922 51.7362L32.0868 51.7308Z" fill="#82E371"/>
<path fill-rule="evenodd" clip-rule="evenodd" d="M25.8471 49.4415L26.4847 51.9792C25.9452 52.8808 23.749 54.0957 22.6864 54.5006C22.2231 54.6896 21.8471 54.7328 21.5147 54.3873C20.7409 53.5936 20.0815 51.3582 19.9507 49.4253H25.8471V49.4469V49.4415Z" fill="#3C942C"/>
<path fill-rule="evenodd" clip-rule="evenodd" d="M20.6482 49.4415C20.6482 49.8465 20.7463 50.2244 20.8008 50.5916C20.9534 51.7794 21.3621 52.9241 22.0106 53.9338L22.0869 53.9931C22.2177 53.9931 22.343 53.9553 22.452 53.896C23.6618 53.3992 24.7844 52.7027 25.7708 51.8442L25.1114 49.4415H20.6428H20.6482Z" fill="#3C942C"/>
<path fill-rule="evenodd" clip-rule="evenodd" d="M21.0515 51.7308C21.2095 52.5137 21.5365 53.2534 22.0161 53.896L22.0924 53.9554C22.2231 53.9554 22.3485 53.9176 22.4575 53.8582C23.5964 53.3722 24.6645 52.7243 25.6182 51.9414H25.1059C24.5828 52.2762 24.0051 52.5245 23.3948 52.6703C23.6564 52.4381 23.9016 52.1898 24.1305 51.9252C23.106 51.9252 22.0597 51.8658 21.0461 51.7362L21.0515 51.7308Z" fill="#82E371"/>
<path fill-rule="evenodd" clip-rule="evenodd" d="M28.7571 49.4415C28.719 50.5538 28.5555 51.6552 28.2721 52.7297C27.2476 53.4424 25.8852 53.4424 24.8607 52.7297C24.5773 51.6552 24.4138 50.5538 24.3757 49.4415H28.7571Z" fill="#3C942C"/>
<path fill-rule="evenodd" clip-rule="evenodd" d="M24.9588 49.6682C25.0078 50.5969 25.1441 51.5148 25.3675 52.4165C26.1195 52.8376 27.0405 52.8376 27.7926 52.4165C28.016 51.5148 28.1522 50.5915 28.2013 49.6682H24.9643H24.9588Z" fill="#3C942C"/>
<path fill-rule="evenodd" clip-rule="evenodd" d="M25.2095 51.7308C25.2095 51.963 25.3076 52.1736 25.3621 52.4003C26.1141 52.8215 27.0351 52.8215 27.7871 52.4003C27.847 52.1682 27.8852 51.9414 27.9397 51.7092H26.1904C25.8416 51.7308 25.531 51.7308 25.204 51.7308H25.2095Z" fill="#82E371"/>
<path fill-rule="evenodd" clip-rule="evenodd" d="M3.67843 25.4307L9.87453 24.7882L7.77647 40.5866L1.90733 37.7789C1.26974 37.5144 0.80108 36.9636 0.648494 36.2941C0.0599457 32.925 0.550403 29.464 2.05992 26.3864C2.34874 25.8573 2.67027 25.5441 3.67298 25.4307H3.67843Z" fill="#598291"/>
<path fill-rule="evenodd" clip-rule="evenodd" d="M6.74105 38.6645L8.35411 26.2784C7.81461 26.3378 3.52039 26.7374 3.30786 26.8724C3.26971 26.921 3.23701 26.9696 3.20976 27.0235C1.83648 29.8258 1.38417 32.979 1.90188 36.0458C1.96727 36.2942 2.15801 36.4993 2.40323 36.5803L6.7356 38.6591L6.74105 38.6645Z" fill="#D3E8EF"/>
<path fill-rule="evenodd" clip-rule="evenodd" d="M6.74105 38.6645L6.85549 37.7844L2.40868 35.9918C2.08171 35.8568 1.84738 34.6582 1.6948 33.3407C1.65665 34.2478 1.72749 35.1603 1.90733 36.0512C1.97272 36.2996 2.16346 36.5047 2.40868 36.5857L6.74105 38.6645ZM7.42769 33.4325L8.39226 26.2784C7.85276 26.3378 3.55853 26.7374 3.346 26.8724C3.30786 26.921 3.27516 26.9696 3.24791 27.0235C2.59397 28.3842 2.13621 29.8258 1.90188 31.316L7.42224 33.4325H7.42769Z" fill="white"/>
<path fill-rule="evenodd" clip-rule="evenodd" d="M2.35419 29.275L4.06534 30.7382C4.30512 30.9434 4.42501 31.2512 4.39231 31.5643C4.21793 33.3191 4.00539 34.9767 3.94545 37.3146C3.69477 35.3762 3.60213 33.4163 3.67297 31.4617C3.67297 31.3862 3.67297 31.3268 3.61303 31.289L2.44138 30.2253L2.2888 29.6206C2.2888 29.5018 2.31059 29.3884 2.34874 29.275H2.35419Z" fill="#D3E8EF"/>
<path fill-rule="evenodd" clip-rule="evenodd" d="M2.2561 29.6206L3.71657 30.8948C3.95635 31.1 4.07624 31.4078 4.04354 31.7209C3.85281 33.3407 3.78742 34.9767 3.84191 36.6073V37.3254L3.08988 36.9691C3.10078 36.8503 3.10078 36.7261 3.08988 36.6073C3.04083 34.9389 3.11713 33.2705 3.31331 31.6183C3.31331 31.5428 3.31331 31.4834 3.25336 31.4456L2.06537 30.3927C2.12531 30.1335 2.20161 29.8744 2.2561 29.626V29.6206Z" fill="#7EAABA"/>
<path fill-rule="evenodd" clip-rule="evenodd" d="M30.7625 5.17261C34.9805 8.93053 35.2693 13.7953 33.3456 18.7951L31.8851 18.2011C33.569 13.7953 33.4492 9.65403 29.7271 6.33346L30.7625 5.17261Z" fill="#598291"/>
<path fill-rule="evenodd" clip-rule="evenodd" d="M29.4056 0.0756177C32.0922 0.539958 33.8906 3.07763 33.4219 5.73949C32.9532 8.40135 30.392 10.1831 27.7054 9.71878C25.0187 9.25444 23.2204 6.71677 23.6891 4.05491C23.6891 4.05491 23.6891 4.04411 23.6891 4.03871C24.1577 1.38225 26.719 -0.394122 29.4002 0.0702184L29.4056 0.0756177Z" fill="#3C942C"/>
<path fill-rule="evenodd" clip-rule="evenodd" d="M29.2312 1.0529C31.3674 1.43625 32.7843 3.45559 32.3974 5.57212C32.0105 7.68865 29.9724 9.09246 27.8362 8.70911C25.7108 8.33116 24.294 6.32262 24.6645 4.21689C25.046 2.09496 27.0896 0.685744 29.2258 1.0529H29.2312Z" fill="#3C942C"/>
<path fill-rule="evenodd" clip-rule="evenodd" d="M32.0105 3.03446C33.0459 4.92962 32.3375 7.29452 30.4247 8.32038C28.5119 9.34625 26.125 8.64434 25.0896 6.74919C24.9643 6.52241 24.8607 6.27945 24.7844 6.03108C25.3457 7.08394 26.3757 7.81825 27.5582 8.01262C29.6999 8.37438 31.7326 6.95976 32.1195 4.84323C32.2176 4.23851 32.1794 3.61759 32.005 3.03446H32.0105ZM28.2776 1.37688C29.6399 1.31748 30.5882 2.15438 30.3974 3.29363C30.0269 4.53547 28.8879 5.39396 27.5855 5.41016C26.2231 5.48575 25.2749 4.62726 25.4656 3.542C25.8198 2.28396 26.9642 1.40927 28.2776 1.37688Z" fill="#82E371"/>
<path fill-rule="evenodd" clip-rule="evenodd" d="M31.6018 21.6189C30.2557 21.3705 25.798 20.4526 25.6182 18.7464C25.5147 16.6353 25.9125 14.5242 26.768 12.5858C27.5037 11.128 32.0105 11.8191 33.3238 12.0513C34.6372 12.2834 39.1276 13.1797 39.2692 14.7833C39.4164 16.8945 39.0622 19.011 38.2338 20.9601C37.4982 22.5043 32.9533 21.851 31.6018 21.6189Z" fill="#006CBF"/>
<path fill-rule="evenodd" clip-rule="evenodd" d="M38.1357 14.9022C37.6725 14.0977 34.0432 13.2932 33.1058 13.1474C32.1249 12.9746 31.1331 12.8612 30.1358 12.8018C29.3348 12.7425 28.5282 12.8396 27.7653 13.088C27.0078 14.8212 26.6536 16.7055 26.7408 18.5953C26.8389 19.0002 28.501 19.6482 28.8879 19.7616C30.8225 20.4149 34.5064 21.0736 36.49 20.674C36.7298 20.6416 36.9586 20.5606 37.1657 20.4365C37.9069 18.6871 38.2393 16.7919 38.1303 14.8968L38.1357 14.9022Z" fill="#006CBF"/>
<path fill-rule="evenodd" clip-rule="evenodd" d="M33.1113 13.1312C32.1304 12.9584 31.1386 12.845 30.1413 12.7856C29.3402 12.7262 28.5337 12.8234 27.7708 13.0718C27.0133 14.805 26.6591 16.6893 26.7462 18.5791C26.8062 18.7302 27.1713 18.984 27.2857 19.0596C28.6917 19.7669 30.2067 20.2421 31.7707 20.4688L33.1058 13.1312H33.1113Z" fill="#57B6FF"/>
<path fill-rule="evenodd" clip-rule="evenodd" d="M56.5115 34.6798L50.9203 31.9694L47.4381 47.5194L53.9285 46.8661C54.6205 46.8445 55.2581 46.4827 55.6287 45.9104C57.3562 42.9516 58.0919 39.523 57.7268 36.1214C57.6505 35.5005 57.4379 35.1334 56.5061 34.6852L56.5115 34.6798Z" fill="#598291"/>
<path fill-rule="evenodd" clip-rule="evenodd" d="M49.0947 46.0669L51.8304 33.8699C52.3154 34.102 56.2391 35.9486 56.3535 36.143V36.3158C56.6532 39.4204 55.9775 42.5358 54.4189 45.2462C54.2772 45.4676 54.0265 45.5972 53.7595 45.5918L49.0893 46.0723L49.0947 46.0669Z" fill="#D3E8EF"/>
<path fill-rule="evenodd" clip-rule="evenodd" d="M49.0947 46.0669L49.2855 45.203L54.0592 45.0194C54.4244 45.0194 55.0238 43.9558 55.6669 42.7679C55.3835 43.6318 54.9911 44.4579 54.5061 45.23C54.3644 45.4514 54.1137 45.581 53.8467 45.5756L49.0893 46.0615L49.0947 46.0669ZM50.2555 40.9322L51.8304 33.8699C52.3154 34.102 56.2391 35.9486 56.3535 36.143V36.3158C56.5006 37.8114 56.4243 39.3232 56.1192 40.7972L50.25 40.9322H50.2555Z" fill="white"/>
<path fill-rule="evenodd" clip-rule="evenodd" d="M56.4516 38.7401L54.3535 39.5446C54.0647 39.658 53.8467 39.9064 53.7759 40.2033C53.329 41.9095 52.953 43.5455 52.201 45.7592C53.111 44.0152 53.8794 42.2011 54.4952 40.3383C54.4952 40.2627 54.4952 40.2249 54.6096 40.1871L56.0592 39.5824L56.408 39.0641C56.4352 38.9669 56.457 38.8319 56.457 38.7401H56.4516Z" fill="#D3E8EF"/>
<path fill-rule="evenodd" clip-rule="evenodd" d="M56.4134 39.0856L54.6042 39.7875C54.3099 39.9063 54.0974 40.1546 54.0265 40.457C53.6342 42.039 53.1219 43.5886 52.4898 45.095L52.201 45.7645L53.0347 45.6673C53.0947 45.5539 53.1328 45.4352 53.1873 45.3218C53.8249 43.7668 54.3426 42.1632 54.7459 40.5326C54.7459 40.4732 54.7459 40.4192 54.8603 40.3976L56.3371 39.8253C56.3753 39.6039 56.3971 39.3555 56.4134 39.0856Z" fill="#7EAABA"/>
<path fill-rule="evenodd" clip-rule="evenodd" d="M26.3539 51.1854C23.0515 50.6293 19.7872 49.8518 16.5883 48.8583C13.8799 48.0646 11.2805 46.9416 8.85547 45.5162C7.12252 44.4525 5.0953 42.7841 4.92092 40.5164C4.40866 33.8968 6.2942 23.3952 9.24239 17.429C10.3323 15.1559 13.5748 14.4863 15.7709 14.2218C18.3812 13.9464 21.0134 13.9032 23.6291 14.1084C26.6754 14.3082 29.7108 14.6753 32.7189 15.2206C35.738 15.7282 38.7243 16.4085 41.6616 17.2508C44.1956 17.9527 46.6588 18.876 49.0184 20.0206C51.0021 20.9763 53.7922 22.7527 54.0647 25.2688C54.7622 31.8883 52.9148 42.3576 50.141 48.4318C49.1765 50.4889 46.7296 51.3744 44.7242 51.7848C41.9613 52.2977 39.1385 52.4759 36.332 52.3031C32.9859 52.1519 29.6508 51.7793 26.3539 51.1908V51.1854Z" fill="#598291"/>
<path fill-rule="evenodd" clip-rule="evenodd" d="M26.6209 49.6305C19.9289 48.4696 13.4058 46.4881 9.6402 44.161C7.70562 42.9515 6.51763 41.6611 6.41954 40.3275C5.96723 34.1938 7.70562 23.946 10.6048 18.0931C11.226 16.8297 13.2042 16.0792 15.978 15.739C20.2504 15.2099 26.4411 15.6526 32.5009 16.6947C38.5608 17.7368 44.4408 19.4645 48.31 21.3867C50.795 22.6501 52.3917 24.0215 52.5443 25.4092C53.2418 31.9045 51.3072 42.1254 48.746 47.7407C48.2446 48.9501 46.6588 49.8086 44.4408 50.2406C40.1085 51.1585 33.2911 50.7697 26.61 49.6251L26.6209 49.6305Z" fill="#BDD6DE"/>
<path fill-rule="evenodd" clip-rule="evenodd" d="M6.8228 31.8505C7.38955 27.1045 8.66474 22.4665 10.6157 18.0931C11.2369 16.8297 13.2151 16.0792 15.9889 15.739C20.2613 15.2099 26.452 15.6526 32.5118 16.6947C38.5717 17.7368 44.528 19.4429 48.3863 21.3705C50.8713 22.6339 52.468 24.0053 52.6206 25.393C52.9312 30.1606 52.517 34.9497 51.3999 39.5985C50.4571 39.8739 49.4817 40.0413 48.5007 40.1061C48.1247 40.1061 47.716 40.1817 47.2909 40.2033C48.4244 36.8881 49.0947 33.4379 49.28 29.9446C49.28 29.2913 48.855 29.0807 48.2446 28.8701C45.0021 27.6661 41.6834 26.6834 38.3047 25.9275C38.054 25.8681 37.7979 25.9869 37.6834 26.2137C37.0023 27.7309 36.1794 29.1833 35.2203 30.5439C34.1358 31.7102 25.7653 30.2361 25.1659 28.7891C24.7463 27.1801 24.4738 25.5388 24.3539 23.8866C24.3267 23.6382 24.1305 23.4492 23.8798 23.4276C20.4521 22.9849 16.9916 22.7797 13.5366 22.8229C12.8772 22.8229 12.3595 22.8229 12.1742 23.4654C11.1334 26.8184 10.5612 30.3009 10.474 33.8105L9.36228 33.3138C8.46311 32.9142 7.61298 32.4229 6.81735 31.8505H6.8228ZM26.6264 49.6305C19.9344 48.4696 13.4113 46.4881 9.64566 44.161C7.71108 42.9515 6.52308 41.6611 6.42499 40.3275V39.6093C6.53943 39.9549 6.70836 40.2789 6.92634 40.565C7.63478 41.7043 8.63749 42.6384 9.82549 43.2755C13.5857 45.5648 20.1142 47.5085 26.7953 48.6802C33.4764 49.8464 40.3319 50.2244 44.6152 49.3389C45.9613 49.1391 47.2365 48.5992 48.3209 47.7785C48.6152 47.5787 48.8768 47.3412 49.1056 47.0712C49.013 47.298 48.9095 47.5247 48.795 47.7407C48.2337 48.9501 46.6479 49.8086 44.4517 50.2406C40.1194 51.1585 33.302 50.7697 26.6209 49.6251L26.6264 49.6305Z" fill="white"/>
<path fill-rule="evenodd" clip-rule="evenodd" d="M22.7245 15.5933C23.1605 16.6516 23.6891 17.672 24.3103 18.6385C26.6754 19.7022 29.1822 20.4311 31.7544 20.7928C34.2938 21.322 36.8987 21.4893 39.4872 21.2896C40.2774 20.6578 41.2583 19.7076 42.0103 18.9625C41.4926 20.1935 40.697 21.295 39.678 22.1696C36.9641 22.4018 34.2339 22.2398 31.5636 21.6891C28.8879 21.3004 26.283 20.5283 23.8308 19.3998C23.264 18.1904 22.888 16.9053 22.719 15.5879L22.7245 15.5933Z" fill="#BDD6DE"/>
<path fill-rule="evenodd" clip-rule="evenodd" d="M22.7245 15.5932C22.9697 16.8027 23.4002 17.9635 23.9997 19.0434C26.4465 20.1286 29.0296 20.8683 31.6781 21.2571C34.3047 21.7916 36.9968 21.9644 39.6725 21.7754C40.6044 20.9655 41.4055 20.0206 42.043 18.9678L42.915 19.2377C42.2774 20.1934 40.8387 22.2722 39.8905 22.6555C37.0949 22.8823 34.2829 22.7095 31.5364 22.1372C28.7626 21.7322 26.0542 20.9439 23.5038 19.7885C22.73 19.0974 22.0924 16.7109 21.8308 15.5554C22.1087 15.577 22.4193 15.5932 22.7299 15.5932H22.7245Z" fill="#7EAABA"/>
<path fill-rule="evenodd" clip-rule="evenodd" d="M29.738 32.1205C31.7979 32.4768 34.6862 32.5902 35.2311 31.7749C36.1848 29.9284 36.9804 28.0062 37.618 26.0247C37.6889 25.7547 37.9668 25.5927 38.2393 25.6629C41.9286 26.489 45.5416 27.6498 49.0184 29.1239C49.656 29.3938 50.141 29.6206 50.1029 30.4575C49.7323 36.0458 48.4844 41.5369 46.3972 46.7418C46.1084 47.4221 44.1629 47.9566 43.5744 48.0916C41.1602 48.5668 38.6916 48.7449 36.2339 48.61C33.1167 48.5128 30.0105 48.1888 26.9424 47.6543C23.8798 47.1252 20.8553 46.3854 17.8908 45.4406C15.5202 44.7333 13.2478 43.7398 11.1225 42.4817C10.6102 42.1578 9.0135 40.9969 8.97536 40.241C8.84457 34.6366 9.5748 29.0429 11.1497 23.6598C11.384 22.8661 11.9235 22.8067 12.6102 22.7689C16.3922 22.5745 20.185 22.7149 23.9397 23.1792C24.2177 23.2116 24.4193 23.46 24.3921 23.7353C24.3049 25.8087 24.3921 27.8874 24.6645 29.9446C24.9152 30.884 27.6727 31.7641 29.7326 32.1313L29.738 32.1205Z" fill="#1E2432"/>
<path fill-rule="evenodd" clip-rule="evenodd" d="M49.2855 29.8852C49.1111 32.898 48.6479 35.8892 47.9013 38.8156C47.4381 40.511 46.5661 40.3976 44.7188 40.6244C36.9859 41.5801 19.6564 38.5457 12.7464 35.0307C11.0952 34.1992 10.2015 33.5081 10.3759 32.2717C10.7683 29.2805 11.3622 26.3216 12.1524 23.4114C12.2015 23.2008 12.4739 23.1253 12.6647 23.1037C16.4303 22.9201 20.2014 23.0605 23.9397 23.5248C24.0378 23.5356 24.1032 23.622 24.0923 23.7138C24.0923 24.3455 24.0324 24.9772 24.0923 25.6305C24.1196 27.1045 24.2286 28.584 24.4138 30.0472C24.7245 31.4348 28.4628 32.2771 29.7326 32.4823C30.9969 32.682 34.8006 33.1896 35.5908 31.9963C35.6889 31.8451 35.7815 31.6508 35.8633 31.4996C36.7189 29.7826 37.4382 28.0008 38.0213 26.1759C38.0376 26.0841 38.1303 26.0193 38.2229 26.0409C38.2229 26.0409 38.2284 26.0409 38.2338 26.0409C41.9014 26.8724 45.4926 28.0224 48.9585 29.4802C49.1274 29.5558 49.2528 29.7124 49.2855 29.8906V29.8852ZM9.32413 39.469V40.1871C9.32413 40.7432 10.8827 41.8716 11.3459 42.1524C18.1142 46.5312 35.6126 49.5765 43.4763 47.7677C44.0103 47.6543 45.8468 47.1144 46.0702 46.6068C46.1683 46.3963 46.261 46.1641 46.3591 45.9373C45.6343 46.3099 44.8659 46.5906 44.0648 46.7634C35.9995 48.5722 18.1251 45.4622 11.1933 41.0132C10.5012 40.5974 9.86908 40.0845 9.32958 39.4906V39.469H9.32413Z" fill="#2D3956"/>
<path fill-rule="evenodd" clip-rule="evenodd" d="M16.681 31.1217C16.1142 32.7145 15.8145 34.3937 15.7927 36.0836C15.7927 38.5673 20.2995 39.388 21.0134 37.0393C21.5038 35.4249 21.7981 33.7619 21.8907 32.0774C22.0433 29.5559 17.5202 28.7352 16.681 31.1217ZM42.3319 35.6031C42.3155 37.2931 42.0158 38.9723 41.4436 40.5651C40.5826 42.9138 36.0758 42.1471 36.2339 39.6526C36.3211 37.968 36.6153 36.305 37.1112 34.6906C37.8469 32.3041 42.37 33.1194 42.3319 35.6031Z" fill="#82E371"/>
<path fill-rule="evenodd" clip-rule="evenodd" d="M31.7162 41.9689C30.7516 46.1047 24.3376 44.9979 24.8825 40.781C27.0242 41.7475 29.3729 42.1578 31.7162 41.9689Z" fill="#82E371"/>
<path fill-rule="evenodd" clip-rule="evenodd" d="M8.67564 49.9166C11.8255 49.9004 14.3922 52.4165 14.4085 55.5373C14.4249 58.6581 11.8854 61.2011 8.73558 61.2173C5.58576 61.2335 3.01903 58.7175 3.00269 55.5967C3.00269 55.5859 3.00269 55.5697 3.00269 55.5589C3.00269 52.4543 5.54216 49.9328 8.67564 49.9166Z" fill="#598291"/>
<path fill-rule="evenodd" clip-rule="evenodd" d="M8.67563 50.8777C11.3023 50.8615 13.444 52.9618 13.4603 55.5643C13.4767 58.1668 11.3568 60.2887 8.73013 60.3049C6.10346 60.3211 3.9618 58.2208 3.94545 55.6183C3.94545 55.5967 3.94545 55.5805 3.94545 55.5589C3.9618 52.978 6.07076 50.8885 8.67563 50.8723V50.8777Z" fill="#D3E8EF"/>
<path fill-rule="evenodd" clip-rule="evenodd" d="M8.67563 50.8777C11.3023 50.8345 13.4658 52.9133 13.5094 55.5157C13.5094 55.5319 13.5094 55.5481 13.5094 55.5643C13.5094 56.1043 13.4167 56.6388 13.2369 57.1463C12.3105 57.4865 11.3241 57.6539 10.3377 57.6431C7.43859 57.6431 4.95361 56.2176 4.15798 54.2415C4.75743 52.26 6.58847 50.8993 8.67563 50.8777Z" fill="white"/>
<path fill-rule="evenodd" clip-rule="evenodd" d="M4.58849 46.1047C4.65389 45.0789 5.0735 44.107 5.77649 43.3565C6.52307 42.8436 7.41135 42.579 8.32141 42.5898C9.71104 42.5898 11.7546 43.1243 11.7928 44.8197C11.8691 48.4696 11.7928 52.1088 11.7928 55.7425C11.8255 56.4174 11.6402 57.0869 11.2696 57.6593C9.64565 60.2077 4.39231 60.3535 1.91278 59.0361C1.46592 58.8525 1.1008 58.5124 0.888269 58.0804C0.501353 56.763 0.250675 55.4132 0.141684 54.0471C-0.0218011 52.5569 -0.0435992 51.0559 0.0817398 49.5657C0.168932 48.4858 0.441408 46.8067 1.67845 46.4449C2.34874 46.2613 3.04083 46.1479 3.73837 46.1209C4.02174 46.0885 4.30512 46.0885 4.58849 46.1101V46.1047Z" fill="#598291"/>
<path fill-rule="evenodd" clip-rule="evenodd" d="M5.23699 51.7308C4.4904 49.814 4.45226 44.7063 5.93453 43.5671C7.56938 42.3036 11.4276 42.7032 11.4821 44.7819C11.5584 48.4318 11.4821 52.071 11.4821 55.7209C11.5802 59.7434 4.96451 60.3481 2.00542 58.7985C1.61851 58.6473 1.30243 58.3612 1.11715 57.994L5.23699 51.7308Z" fill="#598291"/>
<path fill-rule="evenodd" clip-rule="evenodd" d="M6.2615 51.8657C5.29693 50.2459 5.47132 45.0518 6.49583 44.2797C7.68382 43.324 10.5939 43.6858 10.6157 44.8466C10.692 47.9026 10.6157 51.9467 10.6756 55.7694C10.7519 59.009 4.18523 59.4302 1.97272 57.751L6.26695 51.8711L6.2615 51.8657Z" fill="#D3E8EF"/>
<path fill-rule="evenodd" clip-rule="evenodd" d="M5.56396 47.7839C5.6239 46.2397 5.92908 44.8035 6.41408 44.404C7.44404 43.8046 8.69198 43.7129 9.79823 44.1448C9.85818 45.284 9.84183 46.4179 9.74919 47.5572C9.6402 48.5344 6.83915 48.3833 5.56396 47.7893V47.7839Z" fill="white"/>
<path fill-rule="evenodd" clip-rule="evenodd" d="M1.73294 46.6986C2.37599 46.5097 3.04628 46.4071 3.71657 46.3909C5.07895 46.3315 8.72468 46.6014 9.0353 48.3724C9.46037 50.9101 9.46037 53.4964 9.0353 56.034C8.67563 58.1776 3.67842 58.1236 2.87734 57.2003L1.95637 57.7348L1.1226 58.0048C0.746581 56.6982 0.490454 55.3645 0.370564 54.0093C0.217978 52.5407 0.19618 51.0559 0.310619 49.5819C0.41961 48.6532 0.632141 47.0064 1.73294 46.6878V46.6986Z" fill="#598291"/>
<path fill-rule="evenodd" clip-rule="evenodd" d="M1.96728 47.5355C4.47406 46.8174 8.0108 47.5949 8.18518 48.4912C8.59935 50.9371 8.59935 53.4316 8.18518 55.8775C8.0108 57.0005 3.71658 58.1668 1.96728 57.724C0.866477 54.2253 0.806532 47.8973 1.96728 47.5301V47.5355Z" fill="#D3E8EF"/>
<path fill-rule="evenodd" clip-rule="evenodd" d="M1.96727 47.5355C3.66207 47.1036 5.44952 47.163 7.11162 47.7083C7.44404 50.0786 7.41679 52.4813 7.03533 54.8462C6.89909 55.8612 3.73837 56.8655 1.73839 56.8655C0.86647 53.2642 0.948213 47.8433 1.97272 47.5355H1.96727Z" fill="white"/>
<path fill-rule="evenodd" clip-rule="evenodd" d="M0.708435 52.2491C3.45499 51.5202 6.34324 51.5202 9.0898 52.2491L8.89907 53.032C6.29419 52.3247 3.54764 52.3247 0.942764 53.032L0.708435 52.2491Z" fill="#598291"/>
<path fill-rule="evenodd" clip-rule="evenodd" d="M39.9286 56.5199C42.4245 56.5199 44.4463 58.5123 44.4517 60.9852C44.4572 63.458 42.4409 65.4612 39.945 65.4666C37.4491 65.4666 35.4273 63.4742 35.4219 61.0014C35.4219 61.0014 35.4219 60.996 35.4219 60.9906C35.4219 58.5231 37.4273 56.5199 39.9177 56.5145C39.9177 56.5145 39.9232 56.5145 39.9286 56.5145V56.5199Z" fill="#598291"/>
<path fill-rule="evenodd" clip-rule="evenodd" d="M39.9286 57.2273C42.0049 57.2273 43.6943 58.8849 43.6997 60.942C43.7052 62.9992 42.0267 64.6729 39.9504 64.6783C37.8742 64.6783 36.1848 63.0208 36.1794 60.9636C36.1794 60.9636 36.1794 60.9582 36.1794 60.9528C36.163 58.9119 37.8197 57.2435 39.885 57.2273C39.9014 57.2273 39.9177 57.2273 39.9341 57.2273H39.9286Z" fill="#D3E8EF"/>
<path fill-rule="evenodd" clip-rule="evenodd" d="M39.9286 57.2273C41.9886 57.2273 43.667 58.8741 43.6725 60.915C43.6725 60.9258 43.6725 60.942 43.6725 60.9528C43.6725 61.2066 43.6507 61.4604 43.5962 61.7087C43.0131 62.0597 42.3428 62.2487 41.6616 62.2433C39.5962 62.2433 37.9178 60.5911 37.9123 58.5448C37.9123 58.5394 37.9123 58.534 37.9123 58.5232C37.9123 58.264 37.9341 58.0102 37.9886 57.7565C38.5772 57.4163 39.2474 57.2327 39.9341 57.2219L39.9286 57.2273Z" fill="white"/>
<path fill-rule="evenodd" clip-rule="evenodd" d="M33.4219 62.767C32.7244 62.6536 32.0323 62.3837 31.896 61.6764C31.6781 60.3643 31.6127 59.0361 31.7053 57.7079C31.7653 56.8062 32.7898 56.4444 33.6399 56.2824C34.3265 55.4995 35.2421 54.9434 36.2611 54.6896C37.8796 54.6357 39.4927 54.9164 40.9967 55.5157C42.4954 56.0341 42.4354 58.8309 42.3973 60.1159C42.3373 61.2174 42.1629 63.6039 41.2747 64.349C39.678 65.688 34.0541 65.8068 33.6562 63.8685C33.5581 63.5067 33.4819 63.1396 33.4219 62.767Z" fill="#598291"/>
<path fill-rule="evenodd" clip-rule="evenodd" d="M36.5118 57.13C36.7843 58.6202 36.7843 60.1429 36.5118 61.6331C36.3102 62.4376 35.0731 62.5347 34.3756 62.5347C33.678 62.5347 32.3538 62.4754 32.2012 61.5791C31.9832 60.294 31.9178 58.9874 32.0105 57.6916C32.0704 56.8277 33.4437 56.5631 34.1086 56.4443C34.7734 56.3255 36.272 56.223 36.5172 57.1354L36.5118 57.13Z" fill="#598291"/>
<path fill-rule="evenodd" clip-rule="evenodd" d="M35.8469 57.3245C35.7107 56.79 32.7244 57.3245 32.6862 57.7672C32.5936 59.0145 32.6481 60.2671 32.8497 61.5036C32.9478 61.9625 35.6835 62.0003 35.8197 61.5036C36.0867 60.1267 36.0976 58.7067 35.8469 57.3245Z" fill="#D3E8EF"/>
<path fill-rule="evenodd" clip-rule="evenodd" d="M40.8769 55.8018C42.2011 56.2446 42.1411 59.0414 42.0866 60.1321C42.0321 61.2227 41.8741 63.4958 41.1221 64.1545C40.1575 64.7485 39.0404 65.0616 37.9014 65.0562C36.9368 65.0562 34.2175 65.0562 33.956 63.8306C33.5091 61.6385 33.3783 59.3978 33.569 57.1732C33.6453 56.2176 35.5036 55.1539 36.3428 55.0189C37.896 54.9595 39.4382 55.2295 40.8769 55.8018Z" fill="#598291"/>
<path fill-rule="evenodd" clip-rule="evenodd" d="M40.5826 56.4228C39.242 55.8937 37.8033 55.6345 36.3592 55.6669C35.4546 55.8829 34.6698 56.4336 34.163 57.2111C33.9723 59.3708 34.0976 61.5521 34.5282 63.6795C34.7025 64.484 39.2474 64.7323 40.5826 63.6201C41.4436 62.9182 41.8687 56.7683 40.5826 56.4282V56.4228Z" fill="#D3E8EF"/>
<path fill-rule="evenodd" clip-rule="evenodd" d="M40.5826 56.4228C39.2747 55.9152 37.8796 55.6507 36.4736 55.6453V63.1449C38.005 63.3555 39.569 63.1989 41.0294 62.686C41.5526 60.7584 41.618 56.6873 40.5826 56.4228ZM34.4519 56.7467C34.3156 56.8655 34.2066 57.0167 34.1412 57.1895C33.9505 59.3492 34.0758 61.5305 34.5064 63.6578C34.6807 64.4623 39.2256 64.7107 40.5608 63.5984C40.6534 63.5229 40.7243 63.4257 40.7733 63.3231C39.3619 64.3651 34.9696 64.1168 34.7788 63.3231C34.3483 61.1904 34.223 59.0144 34.4137 56.8493C34.4137 56.8493 34.4737 56.7899 34.49 56.7521H34.4519V56.7467Z" fill="white"/>
<path fill-rule="evenodd" clip-rule="evenodd" d="M33.7489 59.9756C34.7298 59.5868 35.7707 59.3655 36.8224 59.3223C37.0567 59.3223 37.0131 60.0512 36.8224 60.0512C35.8251 60.089 34.8442 60.2941 33.9233 60.6667L33.7489 59.9756Z" fill="#598291"/>
<path fill-rule="evenodd" clip-rule="evenodd" d="M41.0512 62.6698C40.6861 62.5186 40.3155 62.362 39.9123 62.1731C39.8196 62.1353 39.7706 62.0381 39.7978 61.9409C39.9613 60.5479 39.9613 59.1387 39.7978 57.7456C39.7815 57.6484 39.8414 57.5513 39.9341 57.5135C40.3155 57.3245 40.7134 57.1625 41.1112 57.0167C41.2093 57.1409 41.2529 57.2975 41.2365 57.4595C40.8768 57.5729 40.5499 57.7294 40.2229 57.8644C40.37 59.1818 40.37 60.5101 40.2229 61.8329C40.5335 61.9841 40.8442 62.1191 41.1875 62.2541C41.2038 62.4052 41.1548 62.5618 41.0512 62.6752V62.6698Z" fill="#7EAABA"/>
</svg>
